<?xml version="1.0" encoding="utf-8"?>
<!-- Generator: Adobe Illustrator 27.5.0, SVG Export Plug-In . SVG Version: 6.00 Build 0)  -->
<svg version="1.1" xmlns="http://www.w3.org/2000/svg" xmlns:xlink="http://www.w3.org/1999/xlink" x="0px" y="0px"
	 viewBox="0 0 800 800" style="enable-background:new 0 0 800 800;" xml:space="preserve">
<g id="background">
	<rect x="0" style="fill:#FFFFFF;" width="800" height="800"/>
</g>
<g id="objects">
	<g>
		<g>
			<path style="fill:#333333;" d="M72.091,287.907v4.564h2.713c0,0-3.454-27.383,22.08-27.383s22.82,27.383,22.82,27.383h50.573
				c0,0-2.96-26.344,23.56-26.344c26.52,0,22.573,26.344,22.573,26.344h17.022c0,0,0-6.414,0-21.956
				c0-15.542-30.55-22.196-30.55-22.196s-11.266-31.584-40.993-40.712c-21.621-6.639-63.401-1.974-72.057,0
				c-8.656,1.974-11.08,13.075-13.794,25.164C73.324,244.858,72.091,287.907,72.091,287.907z M218.876,257.933
				c0,0,10.361-0.247,10.361,10.608C229.237,268.541,218.876,269.774,218.876,257.933z M132.038,211.801
				c34.044,0,45.64,17.022,51.313,26.15c5.674,9.127,0,8.141,0,8.141l-51.313-10.115V211.801z M96.514,215.748
				c7.648-5.427,29.851-3.947,29.851-3.947v22.696c0,0-28.124-3.454-33.304-4.44C87.879,229.069,88.866,221.175,96.514,215.748z"/>
			<g>
				<path style="fill:#333333;" d="M193.836,278.862c4.987,0,9.045,4.058,9.045,9.045c0,4.987-4.058,9.045-9.045,9.045
					s-9.045-4.058-9.045-9.045C184.791,282.919,188.849,278.862,193.836,278.862z"/>
				<path style="fill:#333333;" d="M176.444,287.907c0,9.605,7.787,17.393,17.393,17.393c9.605,0,17.392-7.787,17.392-17.393
					c0-9.605-7.787-17.392-17.392-17.392C184.23,270.515,176.444,278.301,176.444,287.907z M180.925,287.907
					c0-7.12,5.793-12.912,12.912-12.912c7.119,0,12.911,5.792,12.911,12.912c0,7.119-5.792,12.911-12.911,12.911
					C186.717,300.818,180.925,295.026,180.925,287.907z"/>
			</g>
			<g>
				<path style="fill:#333333;" d="M96.884,278.862c4.987,0,9.044,4.058,9.044,9.045c0,4.987-4.057,9.045-9.044,9.045
					c-4.988,0-9.046-4.058-9.046-9.045C87.838,282.919,91.896,278.862,96.884,278.862z"/>
				<path style="fill:#333333;" d="M79.492,287.907c0,9.605,7.787,17.393,17.392,17.393s17.392-7.787,17.392-17.393
					c0-9.605-7.787-17.392-17.392-17.392S79.492,278.301,79.492,287.907z M83.973,287.907c0-7.12,5.792-12.912,12.912-12.912
					c7.119,0,12.911,5.792,12.911,12.912c0,7.119-5.792,12.911-12.911,12.911C89.765,300.818,83.973,295.026,83.973,287.907z"/>
			</g>
		</g>
		<g>
			<g>
				<path style="fill:#333333;" d="M545.081,272.829c6.126,0,11.109,4.984,11.109,11.11c0,6.125-4.983,11.109-11.109,11.109
					c-6.125,0-11.109-4.983-11.109-11.109C533.972,277.813,538.956,272.829,545.081,272.829z"/>
				<path style="fill:#333333;" d="M523.72,283.938c0,11.797,9.564,21.361,21.361,21.361c11.798,0,21.361-9.564,21.361-21.361
					c0-11.797-9.563-21.361-21.361-21.361C533.283,262.577,523.72,272.141,523.72,283.938z M529.224,283.939
					c0-8.744,7.114-15.858,15.858-15.858c8.744,0,15.857,7.114,15.857,15.858c0,8.744-7.113,15.857-15.857,15.857
					C536.338,299.795,529.224,292.682,529.224,283.939z"/>
			</g>
			<g>
				<path style="fill:#333333;" d="M692.423,272.829c6.126,0,11.109,4.984,11.109,11.11c0,6.125-4.983,11.109-11.109,11.109
					c-6.125,0-11.109-4.983-11.109-11.109C681.313,277.813,686.298,272.829,692.423,272.829z"/>
				<path style="fill:#333333;" d="M671.061,283.938c0,11.797,9.564,21.361,21.361,21.361c11.798,0,21.361-9.564,21.361-21.361
					c0-11.797-9.563-21.361-21.361-21.361C680.625,262.577,671.061,272.141,671.061,283.938z M676.565,283.939
					c0-8.744,7.114-15.858,15.858-15.858c8.744,0,15.857,7.114,15.857,15.858c0,8.744-7.113,15.857-15.857,15.857
					C683.68,299.795,676.565,292.682,676.565,283.939z"/>
			</g>
			<path style="fill:#333333;" d="M501.834,272.829c0,11.205,3.766,11.109,3.766,11.109h13.555c0,0,0.753-26.08,25.927-26.08
				c25.174,0,25.78,26.08,25.78,26.08H667.5c0,0-2.008-24.573,24.923-24.573c26.931,0,25.278,24.573,25.278,24.573h28.364
				c0,0,2.761,0.025,2.761-9.513c0-9.539-3.263-8.786-3.263-8.786c0-31.376-44.429-25.602-70.525-33.133
				c-26.097-7.53-7.789-25.603-78.573-25.603c-70.785,0-63.757,3.514-76.808,15.312c-13.053,11.797-11.798,40.362-11.798,40.362
				C506.102,262.526,501.834,261.624,501.834,272.829z M725.984,245.421c0,0,13.053,4.656,15.06,13.191c0,0-8.283,4.267-15.06,0
				C719.207,254.344,725.984,245.421,725.984,245.421z M597.72,214.762c9.832-0.006,19.102,0.104,26.356,0.174
				c25.854,0.251,35.644,19.328,35.644,19.328c0,5.507-31.455,2.777-61.999,2.762V214.762z M546.993,217.358
				c8.492-1.93,27.466-2.487,45.455-2.58v22.247h-45.455V217.358z M523.72,237.025c0,0,0.454-11.546,11.75-17.319
				c1.226-0.627,2.932-1.175,5.02-1.657v18.977C530.461,237.025,523.72,237.025,523.72,237.025z"/>
		</g>
		<g>
			<g>
				<path style="fill:#333333;" d="M313.433,464.574c4.547,0,8.247,3.699,8.247,8.247c0,4.548-3.699,8.247-8.247,8.247
					c-4.547,0-8.248-3.699-8.248-8.247C305.185,468.273,308.886,464.574,313.433,464.574z"/>
				<path style="fill:#333333;" d="M297.575,472.821c0,8.758,7.1,15.857,15.857,15.857c8.758,0,15.858-7.1,15.858-15.857
					c0-8.758-7.1-15.857-15.858-15.857C304.675,456.964,297.575,464.064,297.575,472.821z M301.661,472.821
					c0-6.491,5.281-11.772,11.773-11.772c6.491,0,11.772,5.281,11.772,11.772c0,6.491-5.281,11.772-11.772,11.772
					C306.942,484.593,301.661,479.313,301.661,472.821z"/>
			</g>
			<g>
				
					<ellipse transform="matrix(0.164 -0.9865 0.9865 0.164 -107.3485 818.9756)" style="fill:#333333;" cx="429.505" cy="472.821" rx="8.247" ry="8.247"/>
				<path style="fill:#333333;" d="M413.647,472.821c0,8.758,7.1,15.857,15.857,15.857c8.758,0,15.857-7.1,15.857-15.857
					c0-8.758-7.1-15.857-15.857-15.857C420.747,456.964,413.647,464.064,413.647,472.821z M417.732,472.821
					c0-6.491,5.281-11.772,11.772-11.772c6.491,0,11.772,5.281,11.772,11.772c0,6.491-5.281,11.772-11.772,11.772
					C423.014,484.593,417.732,479.313,417.732,472.821z"/>
			</g>
			<path style="fill:#333333;" d="M280.353,469.779l5.749,5.749h8.213c0,0-2.19-21.626,19.117-21.626
				c21.308,0,19.208,21.626,19.208,21.626h77.472c0,0-1.916-21.626,19.392-21.626c21.308,0,18.935,21.626,18.935,21.626h29.565
				c0-12.219-3.039-21.402-7.705-28.308c0.618-0.149,1.21-0.357,1.738-0.667l-1.614-11.749c-0.79-0.206-1.633-0.267-2.493-0.148
				c-2.468,0.339-4.388,2.051-5.159,4.25c-16.809-14.044-41.514-12.38-41.514-12.38h-45.637
				c-9.308-27.922-24.364-26.85-24.364-26.85l-21.966,0.022c-24.703,0-44.009-1.095-48.937,12.044
				C275.7,434.739,280.353,469.779,280.353,469.779z M320.596,404.655c15.154-0.699,29.599,0.082,29.599,0.082
				s16.448,5.09,15.08,22.337h-44.678V404.655z M289.935,408.185c2.554-1.489,12.304-2.483,23.269-3.141v22.03h-27.923
				C285.281,427.074,283.365,412.018,289.935,408.185z"/>
		</g>
		<g>
			<g>
				<path style="fill:#333333;" d="M544.048,457.862c5.813,0,10.543,4.73,10.543,10.544c0,5.813-4.729,10.543-10.543,10.543
					c-5.814,0-10.544-4.729-10.544-10.543C533.504,462.593,538.234,457.862,544.048,457.862z"/>
				<path style="fill:#333333;" d="M523.774,468.406c0,11.196,9.076,20.272,20.273,20.272c11.196,0,20.272-9.076,20.272-20.272
					c0-11.197-9.076-20.273-20.272-20.273C532.851,448.133,523.774,457.209,523.774,468.406z M528.998,468.406
					c0-8.299,6.751-15.051,15.05-15.051c8.299,0,15.05,6.752,15.05,15.051c0,8.299-6.751,15.05-15.05,15.05
					C535.749,483.456,528.998,476.705,528.998,468.406z"/>
				<path style="fill:#333333;" d="M688.8,457.862c5.813,0,10.543,4.73,10.543,10.544c0,5.813-4.729,10.543-10.543,10.543
					c-5.814,0-10.543-4.729-10.543-10.543C678.257,462.593,682.986,457.862,688.8,457.862z"/>
				<path style="fill:#333333;" d="M668.526,468.406c0,11.196,9.077,20.272,20.273,20.272c11.196,0,20.272-9.076,20.272-20.272
					c0-11.197-9.076-20.273-20.272-20.273C677.603,448.133,668.526,457.209,668.526,468.406z M673.75,468.406
					c0-8.299,6.752-15.051,15.05-15.051c8.299,0,15.05,6.752,15.05,15.051c0,8.299-6.751,15.05-15.05,15.05
					C680.502,483.456,673.75,476.705,673.75,468.406z"/>
			</g>
			<path style="fill:#333333;" d="M504.802,454.886c0,13.864,5.231,11.248,5.231,11.248v7.324h10.202
				c0,0-3.139-28.382,23.811-28.382c26.951,0,24.321,28.382,24.321,28.382h97.311c0,0-4.186-28.382,23.121-28.382
				c27.306,0,23.703,28.382,23.703,28.382s19.881,0,28.252,0s3.924-12.817,3.924-12.817c-13.864-14.388-48.655-22.759-48.655-22.759
				h-31.129c-4.185-1.308-27.205-21.188-27.205-21.188c-4.666-3.975-4.709-0.522-4.709-0.522L656,439.19c0,0-16.748,0-34.268,0
				c0,0-3.14-14.126-8.633-14.126c-5.493,0-4.447,7.848-2.355,14.126c-4.149,0-8.151,0-11.771,0
				c-21.712,0-25.636-14.649-25.636-14.649c-20.403,0-34.006,10.987-34.006,10.987h-15.558l-7.725-10.464h-4.97v18.311
				C511.08,443.376,504.802,441.022,504.802,454.886z M722.822,449.572c0,0,12.509,5.543,18.337,11.514
				C741.159,461.086,723.391,465.776,722.822,449.572z"/>
		</g>
		<g>
			<g>
				<path style="fill:#333333;" d="M287.315,277.086c5.322,0,9.652,4.331,9.652,9.653c0,5.322-4.33,9.652-9.652,9.652
					c-5.323,0-9.653-4.33-9.653-9.652C277.662,281.417,281.992,277.086,287.315,277.086z"/>
				<path style="fill:#333333;" d="M268.754,286.739c0,10.25,8.31,18.56,18.56,18.56c10.25,0,18.56-8.31,18.56-18.56
					c0-10.25-8.31-18.561-18.56-18.561C277.064,268.179,268.754,276.489,268.754,286.739z M273.536,286.739
					c0-7.597,6.181-13.778,13.779-13.778c7.597,0,13.778,6.181,13.778,13.778c0,7.597-6.181,13.778-13.778,13.778
					C279.717,300.517,273.536,294.336,273.536,286.739z"/>
			</g>
			<g>
				<path style="fill:#333333;" d="M437.703,277.086c5.322,0,9.651,4.331,9.651,9.653c0,5.322-4.329,9.652-9.651,9.652
					c-5.322,0-9.653-4.33-9.653-9.652C428.05,281.417,432.381,277.086,437.703,277.086z"/>
				<path style="fill:#333333;" d="M419.143,286.739c0,10.25,8.31,18.56,18.56,18.56c10.251,0,18.561-8.31,18.561-18.56
					c0-10.25-8.31-18.561-18.561-18.561C427.452,268.179,419.143,276.489,419.143,286.739z M423.924,286.739
					c0-7.597,6.182-13.778,13.779-13.778c7.597,0,13.777,6.181,13.777,13.778c0,7.597-6.181,13.778-13.777,13.778
					C430.105,300.517,423.924,294.336,423.924,286.739z"/>
			</g>
			<path style="fill:#333333;" d="M255.346,286.739h10.436c0,0-0.614-22.55,21.533-22.55c22.147,0,22.969,22.55,22.969,22.55
				h104.964c0,0,0-22.243,22.454-22.243c22.454,0,22.97,22.243,22.97,22.243c19.949,0,23.325,1.389,23.939-9.653
				c0.613-11.042-6.753-11.363-6.753-11.363c-3.683-27.929-57.699-29.464-57.699-29.464s-32.533-24.246-52.482-24.86
				c-19.95-0.614-45.73-2.762-65.68,3.99c-19.95,6.752-39.592,42.968-39.592,42.968
				C250.436,266.951,255.346,286.739,255.346,286.739z M460.551,248.691c0,0,13.015,6.147,13.306,17.316c0,0-9.517,1.748-12.82-2.04
				C457.734,260.18,460.551,248.691,460.551,248.691z M339.507,217.241c6.02,0.037,12.007-0.068,17.827-0.078
				c25.774-0.04,48.756,19.76,48.756,19.76l-66.582,0.119V217.241z M285.167,237.138c13.358-17.028,30.63-19.607,48.112-19.878
				v19.792L285.167,237.138z"/>
		</g>
		<g>
			<g>
				<path style="fill:#333333;" d="M312.143,654.894c6.169,0,11.187,5.02,11.187,11.188c0,6.169-5.018,11.188-11.187,11.188
					c-6.169,0-11.188-5.018-11.188-11.188C300.956,659.914,305.975,654.894,312.143,654.894z"/>
				<path style="fill:#333333;" d="M290.632,666.082c0,11.881,9.631,21.512,21.511,21.512c11.88,0,21.511-9.631,21.511-21.512
					c0-11.881-9.631-21.512-21.511-21.512C300.263,644.57,290.632,654.201,290.632,666.082z M296.174,666.082
					c0-8.806,7.164-15.97,15.969-15.97c8.806,0,15.969,7.164,15.969,15.97c0,8.806-7.164,15.969-15.969,15.969
					C303.338,682.051,296.174,674.888,296.174,666.082z"/>
			</g>
			<g>
				<path style="fill:#333333;" d="M440.866,654.894c6.168,0,11.186,5.02,11.186,11.188c0,6.169-5.018,11.188-11.186,11.188
					c-6.169,0-11.188-5.018-11.188-11.188C429.678,659.914,434.697,654.894,440.866,654.894z"/>
				<path style="fill:#333333;" d="M419.354,666.082c0,11.881,9.631,21.512,21.511,21.512c11.881,0,21.512-9.631,21.512-21.512
					c0-11.881-9.631-21.512-21.512-21.512C428.985,644.57,419.354,654.201,419.354,666.082z M424.896,666.082
					c0-8.806,7.164-15.97,15.97-15.97s15.969,7.164,15.969,15.97c0,8.806-7.163,15.969-15.969,15.969
					S424.896,674.888,424.896,666.082z"/>
			</g>
			<path style="fill:#333333;" d="M271.444,659.361c0,13.849,6.811,11.352,6.811,11.352l9.989,0.176c0,0-5.098-28.78,23.899-28.78
				c28.997,0,24.229,28.78,24.229,28.78l80.139-0.176c0,0-4.643-29.286,24.354-29.286c28.997,0,24.457,29.286,24.457,29.286h16.8
				c0,0,2.725,0.228,2.725-10.67c0-10.898-5.222-10.67-5.222-10.67s5.673-21.795-49.947-21.795l-26.333-20.886
				c0,0,5.222-3.859-4.768-3.859c-9.989,0-103.296,0-103.296,0s-6.811,2.043,0,4.54l-17.935,21.341v19.069
				C277.347,647.783,271.444,645.514,271.444,659.361z M464.03,634.93c0,0,12.23,3.563,13.062,14.725
				C477.092,649.654,462.605,653.098,464.03,634.93z M390.631,627.806l-10.67-20.205h19.297l22.475,20.205H390.631z
				 M302.546,627.806l7.946-20.205h63.113l10.216,20.205H302.546z M283.022,627.806l16.119-20.205h6.357l-9.081,20.205H283.022z"/>
		</g>
		<g>
			<g>
				
					<ellipse transform="matrix(0.1596 -0.9872 0.9872 0.1596 -188.2295 1111.3528)" style="fill:#333333;" cx="558.635" cy="666.232" rx="11.109" ry="11.109"/>
				<path style="fill:#333333;" d="M537.273,666.232c0,11.797,9.565,21.361,21.361,21.361c11.798,0,21.361-9.565,21.361-21.361
					c0-11.798-9.564-21.361-21.361-21.361C546.838,644.871,537.273,654.435,537.273,666.232z M542.777,666.232
					c0-8.744,7.113-15.857,15.857-15.857c8.744,0,15.857,7.113,15.857,15.857c0,8.744-7.113,15.857-15.857,15.857
					C549.891,682.09,542.777,674.977,542.777,666.232z"/>
				<circle style="fill:#333333;" cx="695.691" cy="666.232" r="11.109"/>
				<path style="fill:#333333;" d="M674.33,666.232c0,11.797,9.564,21.361,21.361,21.361c11.798,0,21.361-9.565,21.361-21.361
					c0-11.798-9.563-21.361-21.361-21.361C683.894,644.871,674.33,654.435,674.33,666.232z M679.834,666.232
					c0-8.744,7.113-15.857,15.857-15.857c8.744,0,15.857,7.113,15.857,15.857c0,8.744-7.113,15.857-15.857,15.857
					C686.947,682.09,679.834,674.977,679.834,666.232z"/>
			</g>
			<path style="fill:#333333;" d="M511.491,603.318v32.713c0,1.418,1.16,2.577,2.577,2.577h5.943v2.367h-4.023v25.257h18.224
				c0,0-0.146-24.784,24.423-24.784c24.568,0,25.041,24.784,25.041,24.784h87.096c0,0,1.559-24.784,24.92-24.784
				c23.361,0,25.491,24.784,25.491,24.784h17.987v-25.73h-4.733v-6.39c0,0,3.076-13.491-16.094-13.727
				c-19.171-0.236-45.205-4.733-45.205-4.733l-34.79-32.898h-10.769v-4.932h10.813v-4.501h-118.5v4.501h14.254v4.932h-9.639
				l-4.496,5.207v12.78h-5.943C512.651,600.741,511.491,601.9,511.491,603.318z M719.609,622.454c0,0,13.849,2.377,12.608,14.676
				C732.218,637.13,717.025,639.61,719.609,622.454z M623.585,582.754H538.14v-4.932h85.445V582.754z M596.326,587.313h37.855
				l25.936,29.157h-63.791V587.313z M534.146,587.313h53.481v29.157h-53.481V587.313z"/>
		</g>
		<g>
			<g>
				<path style="fill:#333333;" d="M84.753,455.524c6.254,0,11.343,5.089,11.343,11.344c0,6.254-5.088,11.343-11.343,11.343
					c-6.255,0-11.344-5.089-11.344-11.343C73.409,460.613,78.498,455.524,84.753,455.524z"/>
				<path style="fill:#333333;" d="M62.941,466.867c0,12.046,9.765,21.812,21.811,21.812c12.046,0,21.812-9.766,21.812-21.812
					s-9.765-21.811-21.812-21.811C72.706,445.056,62.941,454.821,62.941,466.867z M68.561,466.868
					c0-8.929,7.264-16.192,16.192-16.192c8.928,0,16.191,7.264,16.191,16.192c0,8.928-7.263,16.191-16.191,16.191
					C75.825,483.06,68.561,475.796,68.561,466.868z"/>
			</g>
			<g>
				<path style="fill:#333333;" d="M210.136,455.524c6.254,0,11.343,5.089,11.343,11.344c0,6.254-5.088,11.343-11.343,11.343
					c-6.255,0-11.344-5.089-11.344-11.343C198.792,460.613,203.881,455.524,210.136,455.524z"/>
				<path style="fill:#333333;" d="M188.325,466.867c0,12.046,9.765,21.812,21.811,21.812c12.046,0,21.812-9.766,21.812-21.812
					s-9.765-21.811-21.812-21.811C198.09,445.056,188.325,454.821,188.325,466.867z M193.944,466.868
					c0-8.929,7.264-16.192,16.192-16.192c8.928,0,16.191,7.264,16.191,16.192c0,8.928-7.263,16.191-16.191,16.191
					C201.208,483.06,193.944,475.796,193.944,466.868z"/>
			</g>
			<path style="fill:#333333;" d="M53.639,474.408h7.255c0,0-6.603-32.369,23.859-32.369c30.462,0,24.323,32.369,24.323,32.369
				l74.784-0.93c0,0-1.581-32.183,26.277-32.183c27.857,0,26.555,32.183,26.555,32.183h15.813c0,0,1.191-7.396-1.169-16.025
				c0.618,0.158,1.259,0.253,1.93,0.213c0.372-0.022,0.733-0.083,1.084-0.166l-0.742-12.398c-0.358-0.041-0.724-0.058-1.096-0.035
				c-2.224,0.133-4.099,1.407-5.116,3.214c-5.687-9.203-17.141-17.402-39.91-17.402c0,0-10.604-26.416-77.388-26.416
				C63.312,404.462,43.593,458.782,53.639,474.408z M138.096,410.18c47.571,0.618,61.947,21.256,61.947,21.256h-61.947V410.18z
				 M99.774,414.484c7.605-2.191,17.525-3.83,30.509-4.24v21.191H99.774V414.484z M75.404,431.435c0,0,2.274-8.813,18.789-15.1v15.1
				H75.404z"/>
		</g>
		<g>
			<g>
				<path style="fill:#333333;" d="M79.668,654.19c6.302,0,11.428,5.128,11.428,11.429c0,6.302-5.126,11.428-11.428,11.428
					c-6.301,0-11.428-5.126-11.428-11.428C68.24,659.318,73.367,654.19,79.668,654.19z"/>
				<path style="fill:#333333;" d="M57.693,665.619c0,12.136,9.838,21.975,21.975,21.975c12.136,0,21.974-9.839,21.974-21.975
					c0-12.136-9.838-21.975-21.974-21.975C67.532,643.644,57.693,653.483,57.693,665.619z M63.355,665.619
					c0-8.995,7.318-16.313,16.313-16.313s16.313,7.318,16.313,16.313c0,8.995-7.317,16.313-16.313,16.313
					S63.355,674.614,63.355,665.619z"/>
			</g>
			<g>
				<path style="fill:#333333;" d="M219.183,654.19c6.301,0,11.428,5.128,11.428,11.429c0,6.302-5.127,11.428-11.428,11.428
					c-6.301,0-11.428-5.126-11.428-11.428C207.754,659.318,212.881,654.19,219.183,654.19z"/>
				<path style="fill:#333333;" d="M197.208,665.619c0,12.136,9.838,21.975,21.975,21.975c12.136,0,21.974-9.839,21.974-21.975
					c0-12.136-9.838-21.975-21.974-21.975C207.046,643.644,197.208,653.483,197.208,665.619z M202.87,665.619
					c0-8.995,7.318-16.313,16.313-16.313c8.995,0,16.312,7.318,16.312,16.313c0,8.995-7.317,16.313-16.312,16.313
					C210.188,681.932,202.87,674.614,202.87,665.619z"/>
			</g>
			<path style="fill:#333333;" d="M51.173,640.881v27.402h3.958c0,0-3.958-27.402,24.536-27.402
				c28.494,0,25.702,27.402,25.702,27.402h88.907c0,0-3.045-27.707,24.906-27.707c27.951,0,24.723,27.707,24.723,27.707h8.221
				c11.266-31.36-23.444-45.063-33.796-46.28c-10.352-1.218-47.802-27.707-63.026-30.447c-15.224-2.74-56.328-4.263-75.636,2.436
				c-19.308,6.698-20.273,41.104-20.273,41.104L51.173,640.881z M222.929,627.365c0,0,10.676,1.739,18.227,9.015
				C241.157,636.38,222.613,642.231,222.929,627.365z M138.476,597.332c4.67,0.302,8.963,0.679,12.546,1.091
				c20.611,2.372,47.869,26.096,47.869,26.096h-60.414V597.332z M92.928,598.128c10.957-1.681,26.383-1.752,39.854-1.114v27.505
				H92.928V598.128z M69.205,624.519c0,0,3.163-13.285,10.28-21.509c1.484-1.715,4.568-3.015,8.699-3.981v25.489H69.205z"/>
		</g>
	</g>
	<text transform="matrix(1 0 0 1 183.1929 123.6802)" style="fill:#333333; font-family:'BebasNeueBook'; font-size:76.613px;">-CAR SILHOUETTES-</text>
</g>
<g id="designed_by_freepik">
	<g>
		<g>
			<path style="fill:#333333;" d="M288.462,782.651v-0.258c-0.349,0.398-0.692,0.725-1.031,0.973
				c-0.338,0.252-0.706,0.441-1.102,0.57c-0.396,0.133-0.827,0.195-1.296,0.195c-0.621,0-1.196-0.131-1.725-0.392
				c-0.528-0.264-0.986-0.639-1.372-1.127c-0.387-0.486-0.68-1.059-0.879-1.719c-0.199-0.658-0.299-1.371-0.299-2.137
				c0-1.621,0.396-2.885,1.188-3.791c0.791-0.904,1.833-1.357,3.125-1.357c0.747,0,1.377,0.129,1.89,0.385
				c0.513,0.256,1.013,0.652,1.501,1.182v-3.826c0-0.533,0.105-0.934,0.318-1.207c0.211-0.271,0.514-0.408,0.907-0.408
				c0.393,0,0.694,0.125,0.907,0.375c0.212,0.252,0.318,0.619,0.318,1.107v11.436c0,0.494-0.113,0.863-0.342,1.111
				c-0.228,0.246-0.522,0.369-0.883,0.369c-0.354,0-0.647-0.127-0.879-0.383C288.578,783.491,288.462,783.126,288.462,782.651z
				 M283.362,778.843c0,0.703,0.109,1.301,0.328,1.795c0.219,0.494,0.518,0.865,0.897,1.115c0.38,0.25,0.795,0.377,1.244,0.377
				c0.456,0,0.872-0.119,1.25-0.357c0.376-0.236,0.677-0.602,0.902-1.092c0.225-0.49,0.337-1.106,0.337-1.838
				c0-0.691-0.112-1.285-0.337-1.783c-0.225-0.496-0.528-0.875-0.912-1.139c-0.383-0.262-0.803-0.393-1.258-0.393
				c-0.475,0-0.899,0.135-1.273,0.402c-0.374,0.269-0.663,0.654-0.869,1.158C283.464,777.593,283.362,778.177,283.362,778.843z"/>
			<path style="fill:#333333;" d="M299.896,779.499h-5.071c0.006,0.588,0.124,1.107,0.356,1.557c0.23,0.449,0.538,0.789,0.921,1.016
				c0.383,0.229,0.806,0.342,1.268,0.342c0.31,0,0.593-0.035,0.85-0.107c0.257-0.074,0.505-0.188,0.746-0.344
				c0.241-0.154,0.462-0.32,0.665-0.498c0.202-0.178,0.464-0.42,0.788-0.723c0.133-0.113,0.323-0.172,0.571-0.172
				c0.266,0,0.48,0.074,0.645,0.221c0.165,0.147,0.248,0.35,0.248,0.617c0,0.234-0.093,0.506-0.275,0.82
				c-0.185,0.315-0.462,0.615-0.832,0.902c-0.372,0.289-0.836,0.527-1.397,0.717c-0.56,0.191-1.204,0.285-1.933,0.285
				c-1.665,0-2.96-0.475-3.884-1.424s-1.386-2.238-1.386-3.865c0-0.768,0.113-1.478,0.341-2.133
				c0.228-0.656,0.561-1.217,0.997-1.686c0.437-0.469,0.975-0.828,1.615-1.078c0.639-0.25,1.349-0.375,2.127-0.375
				c1.013,0,1.882,0.213,2.606,0.641c0.726,0.428,1.27,0.98,1.63,1.656c0.36,0.678,0.542,1.369,0.542,2.07
				c0,0.654-0.187,1.076-0.56,1.27C301.101,779.401,300.574,779.499,299.896,779.499z M294.825,778.026h4.702
				c-0.063-0.887-0.303-1.551-0.717-1.99c-0.415-0.441-0.96-0.66-1.638-0.66c-0.646,0-1.177,0.223-1.591,0.668
				C295.165,776.491,294.914,777.151,294.825,778.026z"/>
			<path style="fill:#333333;" d="M311.711,780.741c0,0.715-0.173,1.328-0.522,1.838c-0.348,0.51-0.862,0.896-1.544,1.16
				c-0.68,0.262-1.508,0.392-2.483,0.392c-0.931,0-1.728-0.142-2.393-0.428c-0.665-0.283-1.156-0.641-1.472-1.066
				c-0.317-0.43-0.475-0.857-0.475-1.289c0-0.285,0.101-0.527,0.304-0.73c0.202-0.201,0.459-0.303,0.77-0.303
				c0.272,0,0.48,0.066,0.626,0.199c0.146,0.133,0.286,0.32,0.418,0.559c0.266,0.465,0.585,0.807,0.956,1.037
				c0.37,0.227,0.875,0.342,1.515,0.342c0.519,0,0.945-0.117,1.277-0.348c0.332-0.232,0.498-0.496,0.498-0.793
				c0-0.457-0.172-0.787-0.518-0.996c-0.345-0.209-0.914-0.41-1.705-0.6c-0.893-0.221-1.619-0.455-2.18-0.699
				c-0.561-0.242-1.008-0.565-1.344-0.963c-0.336-0.398-0.503-0.891-0.503-1.473c0-0.518,0.155-1.01,0.465-1.473
				c0.311-0.461,0.768-0.83,1.374-1.105c0.603-0.275,1.333-0.414,2.188-0.414c0.671,0,1.275,0.07,1.809,0.211
				c0.536,0.137,0.983,0.326,1.34,0.561c0.358,0.232,0.63,0.492,0.816,0.777c0.187,0.285,0.28,0.563,0.28,0.836
				c0,0.297-0.1,0.541-0.298,0.733c-0.199,0.188-0.482,0.285-0.851,0.285c-0.266,0-0.492-0.076-0.679-0.231
				c-0.186-0.15-0.4-0.379-0.641-0.682c-0.196-0.254-0.426-0.457-0.693-0.609c-0.266-0.152-0.627-0.227-1.083-0.227
				c-0.469,0-0.857,0.098-1.168,0.299c-0.31,0.199-0.465,0.447-0.465,0.744c0,0.273,0.114,0.496,0.341,0.67
				c0.229,0.176,0.535,0.32,0.922,0.433c0.386,0.113,0.917,0.252,1.596,0.416c0.803,0.197,1.46,0.432,1.97,0.703
				c0.509,0.271,0.895,0.594,1.16,0.965C311.58,779.845,311.711,780.267,311.711,780.741z"/>
			<path style="fill:#333333;" d="M314.36,772.384c-0.361,0-0.669-0.111-0.926-0.332c-0.256-0.221-0.385-0.535-0.385-0.941
				c0-0.367,0.131-0.668,0.394-0.906s0.569-0.357,0.917-0.357c0.336,0,0.633,0.107,0.892,0.324c0.26,0.215,0.39,0.527,0.39,0.94
				c0,0.4-0.127,0.711-0.381,0.935C315.009,772.271,314.708,772.384,314.36,772.384z M315.643,775.062v7.494
				c0,0.519-0.124,0.912-0.371,1.178c-0.248,0.266-0.56,0.398-0.941,0.398c-0.38,0-0.689-0.135-0.926-0.408
				c-0.238-0.271-0.356-0.662-0.356-1.168v-7.418c0-0.512,0.118-0.898,0.356-1.158c0.237-0.26,0.546-0.391,0.926-0.391
				c0.38,0,0.693,0.131,0.941,0.391C315.519,774.239,315.643,774.601,315.643,775.062z"/>
			<path style="fill:#333333;" d="M327.001,775.489v7.531c0,0.861-0.093,1.604-0.277,2.225c-0.182,0.619-0.477,1.133-0.883,1.537
				c-0.405,0.404-0.936,0.707-1.59,0.902c-0.655,0.197-1.471,0.295-2.446,0.295c-0.893,0-1.691-0.125-2.394-0.375
				c-0.702-0.252-1.243-0.574-1.624-0.969c-0.379-0.396-0.57-0.803-0.57-1.221c0-0.316,0.108-0.576,0.324-0.773
				c0.215-0.201,0.475-0.301,0.778-0.301c0.38,0,0.712,0.168,0.998,0.504c0.139,0.17,0.283,0.344,0.432,0.518
				c0.149,0.176,0.314,0.324,0.494,0.447c0.181,0.123,0.397,0.215,0.65,0.275c0.253,0.059,0.545,0.09,0.874,0.09
				c0.671,0,1.192-0.094,1.563-0.281c0.371-0.186,0.63-0.447,0.779-0.783c0.149-0.334,0.236-0.693,0.261-1.078
				c0.025-0.383,0.044-0.998,0.057-1.848c-0.4,0.559-0.859,0.982-1.382,1.273c-0.522,0.291-1.145,0.438-1.866,0.438
				c-0.868,0-1.625-0.223-2.275-0.666c-0.648-0.443-1.147-1.063-1.495-1.861c-0.349-0.799-0.522-1.719-0.522-2.764
				c0-0.777,0.105-1.482,0.317-2.107c0.213-0.629,0.515-1.156,0.907-1.588c0.393-0.43,0.845-0.754,1.358-0.973
				c0.513-0.219,1.076-0.328,1.691-0.328c0.734,0,1.371,0.143,1.909,0.422c0.538,0.283,1.039,0.725,1.501,1.326v-0.352
				c0-0.449,0.11-0.797,0.332-1.045c0.222-0.246,0.507-0.371,0.855-0.371c0.5,0,0.832,0.164,0.997,0.49
				C326.918,774.405,327.001,774.876,327.001,775.489z M319.488,778.776c0,1.051,0.229,1.846,0.688,2.383
				c0.459,0.539,1.053,0.809,1.781,0.809c0.43,0,0.837-0.117,1.22-0.348c0.384-0.231,0.695-0.58,0.937-1.045
				c0.24-0.465,0.361-1.029,0.361-1.695c0-1.057-0.232-1.881-0.698-2.469c-0.466-0.588-1.078-0.883-1.838-0.883
				c-0.741,0-1.335,0.281-1.78,0.846C319.711,776.937,319.488,777.737,319.488,778.776z"/>
			<path style="fill:#333333;" d="M331.122,775.024v0.313c0.455-0.602,0.954-1.043,1.496-1.324c0.541-0.281,1.163-0.424,1.866-0.424
				c0.684,0,1.295,0.15,1.833,0.447c0.538,0.299,0.941,0.719,1.206,1.262c0.172,0.318,0.282,0.66,0.333,1.027
				c0.051,0.367,0.077,0.836,0.077,1.406v4.824c0,0.519-0.119,0.912-0.357,1.178c-0.237,0.266-0.546,0.398-0.926,0.398
				c-0.387,0-0.7-0.135-0.94-0.408c-0.241-0.271-0.361-0.662-0.361-1.168v-4.322c0-0.854-0.119-1.508-0.356-1.961
				c-0.238-0.451-0.711-0.68-1.42-0.68c-0.461,0-0.883,0.139-1.263,0.414c-0.38,0.275-0.659,0.654-0.836,1.135
				c-0.126,0.387-0.19,1.107-0.19,2.166v3.248c0,0.525-0.123,0.92-0.365,1.184c-0.244,0.262-0.559,0.392-0.945,0.392
				c-0.374,0-0.681-0.135-0.922-0.408c-0.24-0.271-0.361-0.662-0.361-1.168v-7.494c0-0.494,0.107-0.863,0.323-1.107
				c0.215-0.242,0.51-0.365,0.883-0.365c0.228,0,0.435,0.055,0.619,0.162c0.183,0.109,0.331,0.27,0.441,0.484
				C331.067,774.45,331.122,774.714,331.122,775.024z"/>
			<path style="fill:#333333;" d="M346.896,779.499h-5.071c0.007,0.588,0.124,1.107,0.356,1.557
				c0.231,0.449,0.538,0.789,0.921,1.016c0.382,0.229,0.805,0.342,1.267,0.342c0.311,0,0.594-0.035,0.851-0.107
				c0.255-0.074,0.504-0.188,0.746-0.344c0.24-0.154,0.461-0.32,0.665-0.498c0.202-0.178,0.464-0.42,0.788-0.723
				c0.133-0.113,0.323-0.172,0.57-0.172c0.266,0,0.481,0.074,0.646,0.221c0.165,0.147,0.247,0.35,0.247,0.617
				c0,0.234-0.091,0.506-0.275,0.82c-0.184,0.315-0.461,0.615-0.831,0.902c-0.371,0.289-0.835,0.527-1.396,0.717
				c-0.561,0.191-1.205,0.285-1.933,0.285c-1.665,0-2.96-0.475-3.885-1.424c-0.923-0.949-1.386-2.238-1.386-3.865
				c0-0.768,0.114-1.478,0.342-2.133c0.228-0.656,0.561-1.217,0.998-1.686c0.437-0.469,0.975-0.828,1.614-1.078
				c0.639-0.25,1.349-0.375,2.128-0.375c1.013,0,1.881,0.213,2.606,0.641c0.726,0.428,1.268,0.98,1.63,1.656
				c0.36,0.678,0.541,1.369,0.541,2.07c0,0.654-0.186,1.076-0.561,1.27C348.101,779.401,347.575,779.499,346.896,779.499z
				 M341.825,778.026h4.701c-0.063-0.887-0.302-1.551-0.717-1.99c-0.415-0.441-0.961-0.66-1.638-0.66
				c-0.646,0-1.177,0.223-1.592,0.668C342.165,776.491,341.914,777.151,341.825,778.026z"/>
			<path style="fill:#333333;" d="M357.466,782.651v-0.258c-0.348,0.398-0.691,0.725-1.03,0.973
				c-0.339,0.252-0.706,0.441-1.102,0.57c-0.395,0.133-0.828,0.195-1.296,0.195c-0.622,0-1.196-0.131-1.724-0.392
				c-0.529-0.264-0.986-0.639-1.373-1.127c-0.387-0.486-0.679-1.059-0.878-1.719c-0.2-0.658-0.299-1.371-0.299-2.137
				c0-1.621,0.396-2.885,1.187-3.791c0.792-0.904,1.833-1.357,3.125-1.357c0.747,0,1.377,0.129,1.89,0.385
				c0.513,0.256,1.013,0.652,1.5,1.182v-3.826c0-0.533,0.107-0.934,0.319-1.207c0.211-0.271,0.515-0.408,0.907-0.408
				c0.392,0,0.694,0.125,0.907,0.375c0.212,0.252,0.318,0.619,0.318,1.107v11.436c0,0.494-0.114,0.863-0.342,1.111
				c-0.228,0.246-0.522,0.369-0.883,0.369c-0.354,0-0.647-0.127-0.879-0.383C357.582,783.491,357.466,783.126,357.466,782.651z
				 M352.367,778.843c0,0.703,0.108,1.301,0.327,1.795c0.218,0.494,0.518,0.865,0.898,1.115c0.379,0.25,0.794,0.377,1.243,0.377
				c0.457,0,0.873-0.119,1.249-0.357c0.377-0.236,0.678-0.602,0.902-1.092c0.225-0.49,0.337-1.106,0.337-1.838
				c0-0.691-0.112-1.285-0.337-1.783c-0.224-0.496-0.528-0.875-0.912-1.139c-0.384-0.262-0.803-0.393-1.259-0.393
				c-0.474,0-0.899,0.135-1.273,0.402c-0.373,0.269-0.663,0.654-0.869,1.158C352.469,777.593,352.367,778.177,352.367,778.843z"/>
			<path style="fill:#333333;" d="M368.064,771.216v3.959c0.487-0.506,0.984-0.895,1.491-1.162c0.506-0.269,1.134-0.404,1.881-0.404
				c0.861,0,1.616,0.205,2.266,0.611c0.648,0.41,1.151,1.002,1.51,1.777c0.357,0.775,0.537,1.695,0.537,2.76
				c0,0.785-0.1,1.504-0.299,2.16c-0.2,0.656-0.49,1.225-0.869,1.705c-0.38,0.48-0.841,0.854-1.382,1.117
				c-0.542,0.262-1.139,0.392-1.79,0.392c-0.399,0-0.775-0.047-1.126-0.142c-0.352-0.094-0.651-0.219-0.898-0.375
				c-0.246-0.154-0.457-0.315-0.631-0.479c-0.174-0.164-0.404-0.412-0.689-0.742v0.258c0,0.486-0.117,0.855-0.352,1.107
				c-0.233,0.25-0.531,0.373-0.893,0.373c-0.367,0-0.66-0.123-0.878-0.373c-0.219-0.252-0.328-0.621-0.328-1.107v-11.322
				c0-0.525,0.106-0.924,0.317-1.191c0.212-0.269,0.509-0.404,0.889-0.404c0.399,0,0.706,0.129,0.921,0.385
				C367.956,770.376,368.064,770.739,368.064,771.216z M368.188,778.919c0,1.031,0.236,1.824,0.707,2.377
				c0.472,0.555,1.091,0.834,1.857,0.834c0.652,0,1.214-0.283,1.686-0.852c0.472-0.566,0.707-1.379,0.707-2.436
				c0-0.684-0.097-1.273-0.294-1.768c-0.197-0.494-0.475-0.875-0.836-1.144c-0.361-0.268-0.783-0.402-1.264-0.402
				c-0.494,0-0.934,0.135-1.32,0.402c-0.386,0.269-0.69,0.658-0.912,1.168C368.299,777.608,368.188,778.216,368.188,778.919z"/>
			<path style="fill:#333333;" d="M379.11,784.456l0.237-0.58l-3.191-8.035c-0.196-0.461-0.295-0.799-0.295-1.008
				c0-0.221,0.058-0.426,0.171-0.615c0.114-0.191,0.271-0.344,0.47-0.457c0.2-0.115,0.407-0.172,0.623-0.172
				c0.373,0,0.655,0.119,0.846,0.357c0.19,0.236,0.357,0.576,0.503,1.02l2.194,6.383l2.08-5.935c0.164-0.48,0.313-0.857,0.446-1.131
				c0.133-0.272,0.273-0.455,0.422-0.549c0.148-0.096,0.359-0.144,0.632-0.144c0.197,0,0.385,0.053,0.565,0.158
				c0.18,0.104,0.319,0.244,0.417,0.422c0.098,0.178,0.148,0.363,0.148,0.561c-0.026,0.119-0.066,0.291-0.124,0.514
				c-0.058,0.221-0.127,0.447-0.208,0.674l-3.381,8.852c-0.292,0.779-0.577,1.389-0.855,1.832c-0.279,0.443-0.647,0.785-1.107,1.021
				c-0.46,0.238-1.078,0.357-1.857,0.357c-0.759,0-1.33-0.082-1.708-0.246c-0.381-0.166-0.57-0.467-0.57-0.904
				c0-0.297,0.089-0.527,0.271-0.688c0.18-0.162,0.448-0.244,0.801-0.244c0.14,0,0.276,0.019,0.409,0.059
				c0.165,0.037,0.307,0.057,0.427,0.057c0.297,0,0.532-0.043,0.704-0.133c0.17-0.088,0.324-0.242,0.46-0.461
				C378.776,785.202,378.933,784.88,379.11,784.456z"/>
		</g>
		<g>
			<path style="fill:#333333;" d="M416.673,773.813h0.619v-0.777c0-0.814,0.1-1.457,0.307-1.938
				c0.203-0.478,0.555-0.826,1.047-1.045c0.49-0.217,1.162-0.326,2.016-0.326c1.52,0,2.273,0.367,2.273,1.113
				c0,0.238-0.08,0.445-0.24,0.615c-0.154,0.17-0.344,0.256-0.559,0.256c-0.1,0-0.277-0.018-0.527-0.059
				c-0.236-0.033-0.451-0.057-0.623-0.057c-0.467,0-0.766,0.141-0.904,0.416c-0.127,0.275-0.195,0.668-0.195,1.184v0.617h0.633
				c0.99,0,1.48,0.297,1.48,0.897c0,0.418-0.127,0.689-0.393,0.805c-0.262,0.113-0.623,0.17-1.088,0.17h-0.633v6.871
				c0,0.512-0.121,0.9-0.369,1.168c-0.242,0.273-0.555,0.406-0.943,0.406c-0.367,0-0.67-0.133-0.918-0.406
				c-0.244-0.267-0.363-0.656-0.363-1.168v-6.871h-0.715c-0.389,0-0.682-0.084-0.892-0.262c-0.209-0.17-0.315-0.398-0.315-0.678
				C415.37,774.122,415.804,773.813,416.673,773.813"/>
			<path style="fill:#333333;" d="M425.163,780.388v2.168c0,0.523-0.133,0.92-0.375,1.18c-0.246,0.266-0.559,0.394-0.938,0.394
				c-0.381,0-0.688-0.131-0.926-0.4c-0.236-0.264-0.361-0.656-0.361-1.174v-7.223c0-1.166,0.42-1.748,1.262-1.748
				c0.434,0,0.742,0.135,0.934,0.408c0.189,0.273,0.295,0.674,0.316,1.207c0.309-0.533,0.625-0.934,0.949-1.207
				c0.332-0.273,0.762-0.408,1.309-0.408c0.549,0,1.072,0.135,1.586,0.408c0.516,0.273,0.772,0.637,0.772,1.084
				c0,0.315-0.111,0.58-0.326,0.781c-0.221,0.209-0.455,0.313-0.707,0.313c-0.1,0-0.33-0.063-0.691-0.18
				c-0.365-0.113-0.689-0.174-0.963-0.174c-0.381,0-0.693,0.104-0.932,0.299c-0.242,0.205-0.432,0.496-0.565,0.887
				c-0.129,0.395-0.219,0.865-0.273,1.404C425.185,778.948,425.163,779.61,425.163,780.388"/>
			<path style="fill:#333333;" d="M437.083,779.495h-5.074c0.01,0.588,0.125,1.111,0.355,1.559c0.234,0.447,0.539,0.787,0.924,1.018
				c0.385,0.227,0.805,0.34,1.27,0.34c0.311,0,0.592-0.033,0.85-0.111c0.254-0.07,0.504-0.185,0.744-0.342
				c0.242-0.152,0.461-0.318,0.664-0.5c0.203-0.174,0.467-0.416,0.791-0.719c0.135-0.113,0.324-0.174,0.568-0.174
				c0.268,0,0.481,0.074,0.648,0.223c0.166,0.146,0.244,0.35,0.244,0.617c0,0.234-0.09,0.508-0.268,0.818
				c-0.188,0.318-0.463,0.617-0.836,0.906c-0.375,0.285-0.84,0.527-1.398,0.715c-0.559,0.189-1.205,0.285-1.932,0.285
				c-1.67,0-2.963-0.473-3.887-1.422c-0.924-0.951-1.391-2.242-1.391-3.867c0-0.768,0.117-1.479,0.348-2.135
				c0.225-0.658,0.557-1.217,0.998-1.688c0.436-0.471,0.971-0.828,1.613-1.078c0.637-0.25,1.346-0.375,2.127-0.375
				c1.012,0,1.881,0.215,2.607,0.646c0.723,0.422,1.273,0.977,1.629,1.654c0.361,0.68,0.541,1.367,0.541,2.074
				c0,0.648-0.188,1.07-0.561,1.266C438.286,779.399,437.761,779.495,437.083,779.495 M432.009,778.021h4.701
				c-0.063-0.885-0.297-1.549-0.713-1.986c-0.418-0.441-0.959-0.66-1.641-0.66c-0.646,0-1.178,0.221-1.592,0.67
				C432.351,776.489,432.097,777.148,432.009,778.021"/>
			<path style="fill:#333333;" d="M447.87,779.495h-5.072c0.006,0.588,0.125,1.111,0.354,1.559c0.232,0.447,0.539,0.787,0.922,1.018
				c0.383,0.227,0.805,0.34,1.272,0.34c0.307,0,0.592-0.033,0.844-0.111c0.26-0.07,0.506-0.185,0.75-0.342
				c0.242-0.152,0.461-0.318,0.664-0.5c0.199-0.174,0.465-0.416,0.789-0.719c0.135-0.113,0.326-0.174,0.568-0.174
				c0.267,0,0.482,0.074,0.65,0.223c0.164,0.146,0.24,0.35,0.24,0.617c0,0.234-0.088,0.508-0.273,0.818
				c-0.178,0.318-0.455,0.617-0.83,0.906c-0.371,0.285-0.84,0.527-1.397,0.715c-0.557,0.189-1.207,0.285-1.934,0.285
				c-1.668,0-2.959-0.473-3.887-1.422c-0.924-0.951-1.389-2.242-1.389-3.867c0-0.768,0.115-1.479,0.348-2.135
				c0.227-0.658,0.559-1.217,0.996-1.688c0.436-0.471,0.973-0.828,1.613-1.078c0.639-0.25,1.352-0.375,2.129-0.375
				c1.01,0,1.879,0.215,2.613,0.646c0.721,0.422,1.266,0.977,1.621,1.654c0.359,0.68,0.545,1.367,0.545,2.074
				c0,0.648-0.191,1.07-0.56,1.266C449.071,779.399,448.546,779.495,447.87,779.495 M442.798,778.021h4.701
				c-0.064-0.885-0.305-1.549-0.715-1.986c-0.422-0.441-0.963-0.66-1.643-0.66c-0.647,0-1.176,0.221-1.594,0.67
				C443.136,776.489,442.882,777.148,442.798,778.021"/>
			<path style="fill:#333333;" d="M453.55,775.044v0.311c0.486-0.602,0.994-1.043,1.525-1.324c0.518-0.285,1.117-0.428,1.781-0.428
				c0.795,0,1.535,0.209,2.207,0.617c0.672,0.414,1.199,1.016,1.59,1.807c0.389,0.795,0.586,1.73,0.586,2.814
				c0,0.795-0.113,1.531-0.336,2.201c-0.225,0.668-0.537,1.227-0.93,1.68c-0.393,0.449-0.855,0.801-1.389,1.045
				c-0.543,0.242-1.111,0.363-1.729,0.363c-0.738,0-1.363-0.148-1.865-0.447c-0.502-0.291-0.982-0.732-1.441-1.305v3.893
				c0,1.135-0.416,1.709-1.244,1.709c-0.49,0-0.809-0.146-0.971-0.44c-0.152-0.299-0.234-0.723-0.234-1.291v-11.193
				c0-0.494,0.107-0.859,0.32-1.108c0.215-0.238,0.512-0.363,0.885-0.363c0.369,0,0.666,0.125,0.896,0.373
				C453.436,774.212,453.55,774.569,453.55,775.044 M458.634,778.812c0-0.686-0.105-1.273-0.315-1.764
				c-0.209-0.492-0.498-0.867-0.865-1.127c-0.367-0.264-0.783-0.396-1.232-0.396c-0.715,0-1.318,0.283-1.809,0.844
				c-0.492,0.566-0.74,1.394-0.74,2.492c0,1.027,0.244,1.834,0.736,2.406c0.486,0.574,1.086,0.859,1.813,0.859
				c0.428,0,0.83-0.127,1.197-0.373c0.371-0.252,0.664-0.627,0.883-1.127C458.522,780.124,458.634,779.519,458.634,778.812"/>
			<path style="fill:#333333;" d="M463.851,772.378c-0.363,0-0.67-0.115-0.924-0.336c-0.26-0.223-0.387-0.531-0.387-0.936
				c0-0.369,0.131-0.67,0.396-0.91c0.262-0.234,0.566-0.355,0.914-0.355c0.34,0,0.635,0.105,0.893,0.318
				c0.26,0.219,0.391,0.535,0.391,0.947c0,0.398-0.127,0.711-0.377,0.936C464.503,772.263,464.202,772.378,463.851,772.378
				 M465.134,775.056v7.502c0,0.516-0.123,0.908-0.369,1.172c-0.25,0.27-0.56,0.4-0.941,0.4c-0.381,0-0.685-0.133-0.928-0.406
				c-0.234-0.275-0.355-0.664-0.355-1.166v-7.428c0-0.51,0.121-0.894,0.355-1.154c0.242-0.264,0.547-0.391,0.928-0.391
				c0.381,0,0.691,0.127,0.941,0.391C465.011,774.235,465.134,774.599,465.134,775.056"/>
			<path style="fill:#333333;" d="M473.493,782.946l-2.283-3.766l-1.408,1.328v2.066c0,0.498-0.133,0.881-0.397,1.148
				c-0.258,0.273-0.566,0.406-0.906,0.406c-0.398,0-0.715-0.131-0.941-0.4c-0.227-0.264-0.344-0.656-0.344-1.174v-11.063
				c0-0.574,0.115-1.012,0.332-1.315c0.223-0.305,0.545-0.451,0.953-0.451c0.398,0,0.713,0.137,0.949,0.41
				c0.234,0.271,0.354,0.674,0.354,1.203v6.293l2.916-3.063c0.361-0.377,0.633-0.641,0.826-0.779c0.19-0.139,0.42-0.207,0.69-0.207
				c0.326,0,0.594,0.103,0.816,0.309c0.211,0.205,0.32,0.465,0.32,0.773c0,0.379-0.353,0.889-1.055,1.521l-1.377,1.262l2.658,4.184
				c0.193,0.313,0.34,0.543,0.424,0.705c0.084,0.16,0.131,0.32,0.131,0.463c0,0.412-0.115,0.734-0.342,0.975
				c-0.225,0.236-0.523,0.353-0.885,0.353c-0.316,0-0.564-0.08-0.734-0.256C474.02,783.702,473.784,783.392,473.493,782.946"/>
			<path style="fill:#333333;" d="M479.13,784.13c-0.393,0-0.728-0.125-1.014-0.381c-0.285-0.248-0.43-0.605-0.43-1.064
				c0-0.385,0.139-0.719,0.41-0.994c0.275-0.279,0.607-0.42,1.008-0.42c0.398,0,0.736,0.141,1.023,0.412
				c0.279,0.275,0.422,0.613,0.422,1.002c0,0.453-0.143,0.809-0.422,1.061C479.841,784.005,479.509,784.13,479.13,784.13"/>
			<path style="fill:#333333;" d="M492.028,780.921c0,0.32-0.098,0.668-0.291,1.033c-0.191,0.371-0.488,0.719-0.887,1.051
				c-0.395,0.332-0.891,0.602-1.494,0.803c-0.602,0.203-1.281,0.307-2.031,0.307c-1.605,0-2.857-0.469-3.758-1.4
				c-0.895-0.936-1.346-2.19-1.346-3.76c0-1.068,0.205-2.006,0.619-2.824c0.408-0.814,1.004-1.447,1.781-1.894
				c0.779-0.447,1.717-0.67,2.795-0.67c0.674,0,1.287,0.098,1.852,0.295c0.561,0.195,1.033,0.451,1.426,0.76
				c0.387,0.314,0.686,0.643,0.889,0.992c0.207,0.352,0.309,0.68,0.309,0.986c0,0.309-0.113,0.572-0.344,0.787
				c-0.234,0.215-0.516,0.324-0.838,0.324c-0.219,0-0.398-0.057-0.541-0.166c-0.145-0.111-0.305-0.289-0.478-0.541
				c-0.318-0.479-0.647-0.842-0.996-1.08c-0.344-0.242-0.781-0.361-1.314-0.361c-0.762,0-1.383,0.297-1.853,0.896
				c-0.467,0.596-0.703,1.42-0.703,2.455c0,0.488,0.063,0.939,0.184,1.348c0.117,0.406,0.291,0.756,0.52,1.043
				c0.23,0.287,0.504,0.506,0.826,0.654c0.324,0.154,0.682,0.227,1.065,0.227c0.521,0,0.967-0.121,1.336-0.361
				c0.377-0.24,0.703-0.607,0.986-1.102c0.158-0.291,0.328-0.518,0.51-0.684c0.182-0.164,0.408-0.25,0.676-0.25
				c0.316,0,0.58,0.123,0.785,0.363C491.921,780.392,492.028,780.649,492.028,780.921"/>
			<path style="fill:#333333;" d="M503.218,778.86c0,0.769-0.121,1.484-0.355,2.139c-0.246,0.652-0.592,1.213-1.049,1.678
				c-0.455,0.469-1.002,0.828-1.633,1.08c-0.639,0.248-1.35,0.375-2.139,0.375c-0.785,0-1.492-0.127-2.121-0.383
				c-0.623-0.248-1.17-0.613-1.625-1.082c-0.461-0.477-0.809-1.033-1.053-1.676c-0.229-0.645-0.35-1.356-0.35-2.131
				c0-0.787,0.123-1.506,0.357-2.158c0.242-0.654,0.59-1.213,1.039-1.674c0.451-0.461,0.994-0.816,1.631-1.07
				c0.645-0.248,1.35-0.373,2.121-0.373c0.785,0,1.498,0.125,2.139,0.381c0.639,0.252,1.184,0.615,1.645,1.08
				c0.457,0.475,0.803,1.029,1.039,1.672C503.099,777.368,503.218,778.077,503.218,778.86 M500.614,778.86
				c0-1.059-0.234-1.881-0.697-2.469c-0.463-0.596-1.09-0.889-1.875-0.889c-0.508,0-0.955,0.133-1.342,0.395
				c-0.387,0.262-0.682,0.648-0.891,1.164c-0.209,0.514-0.315,1.113-0.315,1.799c0,0.678,0.102,1.268,0.309,1.773
				c0.209,0.51,0.502,0.896,0.887,1.166c0.385,0.266,0.834,0.404,1.352,0.404c0.785,0,1.412-0.297,1.875-0.893
				C500.38,780.722,500.614,779.901,500.614,778.86"/>
			<path style="fill:#333333;" d="M513.11,779.05v3.447c0,0.547-0.121,0.951-0.369,1.227c-0.25,0.273-0.572,0.408-0.979,0.408
				c-0.393,0-0.713-0.135-0.951-0.408c-0.246-0.275-0.371-0.68-0.371-1.227v-4.131c0-0.654-0.022-1.162-0.064-1.525
				c-0.045-0.354-0.168-0.654-0.361-0.883c-0.197-0.234-0.51-0.352-0.932-0.352c-0.85,0-1.406,0.291-1.676,0.881
				c-0.268,0.576-0.406,1.414-0.406,2.508v3.502c0,0.537-0.123,0.945-0.361,1.223c-0.25,0.273-0.568,0.412-0.965,0.412
				c-0.396,0-0.717-0.139-0.967-0.412c-0.252-0.277-0.377-0.686-0.377-1.223v-7.42c0-0.488,0.111-0.859,0.336-1.111
				c0.228-0.256,0.525-0.381,0.889-0.381c0.357,0,0.652,0.123,0.892,0.355c0.236,0.238,0.354,0.566,0.354,0.984v0.244
				c0.453-0.535,0.935-0.932,1.445-1.18c0.516-0.26,1.082-0.387,1.713-0.387c0.65,0,1.211,0.131,1.678,0.391
				c0.469,0.26,0.854,0.654,1.16,1.176c0.439-0.527,0.908-0.922,1.41-1.18c0.5-0.258,1.053-0.387,1.662-0.387
				c0.705,0,1.32,0.143,1.834,0.42c0.51,0.277,0.893,0.68,1.146,1.195c0.221,0.473,0.33,1.209,0.33,2.217v5.063
				c0,0.547-0.121,0.951-0.367,1.227c-0.246,0.273-0.574,0.408-0.978,0.408c-0.395,0-0.715-0.139-0.965-0.412
				c-0.25-0.277-0.377-0.686-0.377-1.223v-4.361c0-0.559-0.023-1.004-0.068-1.338c-0.047-0.338-0.178-0.621-0.383-0.848
				c-0.213-0.227-0.531-0.344-0.953-0.344c-0.342,0-0.666,0.108-0.975,0.309c-0.307,0.197-0.547,0.477-0.721,0.813
				C513.208,777.165,513.11,777.94,513.11,779.05"/>
		</g>
		<g>
			<path style="fill:#333333;" d="M392.405,778.231c-0.002-0.004-0.002-0.01-0.002-0.017
				C392.403,778.222,392.403,778.227,392.405,778.231z"/>
			<path style="fill:#333333;" d="M392.536,779.062c0.002,0,0.002,0,0.003,0c-0.05-0.236-0.088-0.471-0.119-0.703
				C392.451,778.593,392.489,778.827,392.536,779.062z"/>
			<path style="fill:#333333;" d="M393.395,781.468c-0.006-0.01-0.011-0.021-0.017-0.033
				C393.384,781.446,393.389,781.458,393.395,781.468z"/>
			<path style="fill:#333333;" d="M393.313,781.308c-0.022-0.045-0.044-0.09-0.065-0.135
				C393.269,781.22,393.29,781.263,393.313,781.308z"/>
			<path style="fill:#333333;" d="M392.777,779.987c0.127,0.4,0.28,0.789,0.457,1.158c-0.18-0.377-0.33-0.766-0.454-1.158
				C392.78,779.987,392.778,779.987,392.777,779.987z"/>
			<path style="fill:#333333;" d="M402.443,768.296c0.5,0,0.871,0.039,1.294,0.111l0.121-0.764c0,0-1.171-0.359-2.711-0.234
				l-0.121-0.414c0.478-0.102,0.838-0.527,0.838-1.035c0-0.582-0.474-1.053-1.057-1.053c-0.583,0-1.056,0.471-1.056,1.053
				c0,0.508,0.358,0.934,0.836,1.035l0.134,0.463c-1.634,0.225-2.935,0.861-2.935,0.861l0.23,0.705
				c0.989-0.328,1.846-0.529,2.624-0.613C401.402,768.331,401.976,768.296,402.443,768.296z"/>
			<path style="fill:#333333;" d="M393.375,772.153l0.006-0.008c0.039-0.049,0.076-0.096,0.113-0.143l-0.313-0.225l-0.488-0.357
				c-0.027,0.039-0.795,0.744-1.401,2.049c-0.025-0.041-0.056-0.082-0.09-0.119c-0.182-0.199-0.435-0.301-0.758-0.295
				c-0.004,0-0.009,0-0.015,0c-0.2,0-0.337-0.066-0.427-0.147c0.089-0.113,0.143-0.256,0.143-0.414c0-0.367-0.3-0.668-0.669-0.668
				c-0.369,0-0.669,0.301-0.669,0.668c0,0.371,0.3,0.67,0.669,0.67c0.058,0,0.113-0.01,0.167-0.021
				c0.164,0.183,0.425,0.342,0.808,0.334c0.197-0.002,0.341,0.049,0.438,0.156c0.111,0.121,0.148,0.295,0.16,0.428
				c-0.001,0.002-0.001,0.004-0.003,0.004c-0.436,1.189-0.311,2.67-0.311,2.67l1.057,0.043c0.022-0.539,0.099-1.482,0.372-2.23
				C392.689,773.099,393.348,772.192,393.375,772.153z"/>
			<path style="fill:#333333;" d="M411.642,769.179c-0.367,0-0.668,0.299-0.668,0.67c0,0.057,0.008,0.111,0.023,0.164
				c-0.184,0.166-0.344,0.428-0.338,0.81c0.004,0.197-0.047,0.34-0.154,0.438c-0.084,0.074-0.191,0.115-0.295,0.141
				c-0.787-1.104-1.756-1.775-1.756-1.775l-0.76,0.813c0.574,0.522,1.16,1.176,1.729,1.99c0.395,0.565,0.799,1.291,1.137,2.016
				l1.023-0.486c0,0-0.467-1.156-1.125-2.191c0.113-0.041,0.228-0.104,0.33-0.193c0.201-0.18,0.299-0.435,0.293-0.758
				c-0.002-0.207,0.066-0.348,0.148-0.441c0.115,0.088,0.258,0.143,0.412,0.143c0.371,0,0.67-0.299,0.67-0.668
				C412.311,769.477,412.013,769.179,411.642,769.179z"/>
			<path style="fill:#333333;" d="M408.985,778.382c-1.41,0.686-3.729,1.594-6.782,2.02c-1.197,0.166-2.359,0.227-3.428,0.227
				c-1.391,0-2.62-0.104-3.563-0.223c-1.076-0.135-1.918-0.301-2.432-0.418c0.124,0.393,0.273,0.781,0.454,1.158
				c0.003,0.01,0.008,0.021,0.013,0.027c0.021,0.045,0.043,0.09,0.065,0.135c0.022,0.043,0.043,0.086,0.065,0.127
				c0.006,0.012,0.011,0.023,0.017,0.033c0.303,0.57,0.667,1.094,1.081,1.549c1.44,1.574,2.907,1.824,2.921,1.826l0.023,0.002
				l0.022,0.008c0.013,0.006,1.314,0.426,3.292,0.426c1.946,0,3.855-0.393,5.673-1.168c1.348-0.69,2.623-1.736,3.254-2.67
				c0.488-0.723,0.842-1.492,1.051-2.293c0.111-0.426,0.199-1.108,0.146-1.826C410.46,777.589,409.833,777.968,408.985,778.382z"/>
			<path style="fill:#333333;" d="M393.828,772.487c-0.041,0.061-0.652,0.926-1.135,2.254c-0.362,0.994-0.346,2.443-0.346,2.459
				v0.004c0,0.34,0.019,0.676,0.057,1.01c0,0.008,0,0.014,0.002,0.017c0.004,0.043,0.011,0.084,0.015,0.127
				c0.03,0.232,0.069,0.467,0.119,0.703c0.7,0.178,4.878,1.152,9.549,0.502c2.927-0.408,5.149-1.273,6.499-1.928
				c1.121-0.543,1.842-1.035,2.119-1.238c-0.277-1.027-1.041-2.641-1.742-3.647c-2.006-2.865-4.168-3.6-5.277-3.783
				c-0.425-0.068-0.763-0.109-1.243-0.109c-0.447,0-1.002,0.037-1.744,0.115c-0.743,0.076-1.572,0.272-2.532,0.596
				c-1.348,0.451-2.567,1.158-3.527,2.047l-0.033,0.031C394.466,771.778,394.169,772.054,393.828,772.487z M406.097,771.821
				c0.961,0,1.744,0.781,1.744,1.742c0,0.963-0.783,1.744-1.744,1.744c-0.961,0-1.742-0.781-1.742-1.744
				C404.354,772.602,405.136,771.821,406.097,771.821z M397.855,771.751c1.557,0,2.817,1.262,2.817,2.818
				c0,1.555-1.26,2.815-2.817,2.815c-1.555,0-2.816-1.26-2.816-2.815C395.04,773.013,396.301,771.751,397.855,771.751z"/>
		</g>
	</g>
</g>
</svg>
