<?xml version="1.0" encoding="UTF-8"?>
<!-- Generator: Adobe Illustrator 15.0.0, SVG Export Plug-In . SVG Version: 6.00 Build 0)  -->
<!DOCTYPE svg PUBLIC "-//W3C//DTD SVG 1.1//EN" "http://www.w3.org/Graphics/SVG/1.1/DTD/svg11.dtd">
<svg version="1.1" xmlns="http://www.w3.org/2000/svg" xmlns:xlink="http://www.w3.org/1999/xlink" x="0px" y="0px" width="48px" height="48px" viewBox="0 0 48 48" enable-background="new 0 0 48 48" xml:space="preserve">
<polygon fill="#FF3D00" points="35,31.001 44,14.001 28,23.001 23,7.001 20,23.001 8,13.001 15,31.001 3,34.001 14.998,40 20,40   12,36 19,34 16,25 22.676,30.438 23.932,23.738 23.972,23.521 25.655,28.909 34.095,24.162 30,34 37,36 31,40 35.002,40 45,34.001   "/>
<polygon fill="#FF9E80" points="30,34 34.095,24.162 25.655,28.909 23.972,23.521 23.932,23.738 22.676,30.438 16,25 19,34 12,36   20,40 23,40 19,37 23,37 21,33 25,35 28,31 27,37 31,37 28,40 31,40 37,36 "/>
<polygon fill="#FFF59D" points="23,40 19,37 23,37 21,33 25,35 28,31 27,37 31,37 28,40 "/>
</svg>