<?xml version="1.0" encoding="windows-1252"?>
<!-- Generator: Adobe Illustrator 19.1.1, SVG Export Plug-In . SVG Version: 6.00 Build 0)  -->
<svg version="1.1" xmlns="http://www.w3.org/2000/svg" xmlns:xlink="http://www.w3.org/1999/xlink" x="0px" y="0px" viewBox="0 0 48 48" style="enable-background:new 0 0 48 48;" xml:space="preserve">
<path style="fill:#9FA8DA;" d="M9,45H6V12c0,0,0.584-5,1.542-5S9,12,9,12V45z"/>
<circle style="fill:#9FA8DA;" cx="7.5" cy="5.5" r="2.5"/>
<rect x="6" y="9" style="fill:#E0DDDC;" width="36" height="24"/>
<rect x="12" y="9" style="fill:#546E7A;" width="6" height="6"/>
<rect x="18" y="15" style="fill:#546E7A;" width="6" height="6"/>
<rect x="36" y="9" style="fill:#546E7A;" width="6" height="6"/>
<rect x="24" y="9" style="fill:#546E7A;" width="6" height="6"/>
<rect x="30" y="15" style="fill:#546E7A;" width="6" height="6"/>
<rect x="12" y="21" style="fill:#546E7A;" width="6" height="6"/>
<rect x="18" y="27" style="fill:#546E7A;" width="6" height="6"/>
<rect x="6" y="15" style="fill:#546E7A;" width="6" height="6"/>
<rect x="6" y="27" style="fill:#546E7A;" width="6" height="6"/>
<rect x="36" y="21" style="fill:#546E7A;" width="6" height="6"/>
<rect x="24" y="21" style="fill:#546E7A;" width="6" height="6"/>
<rect x="30" y="27" style="fill:#546E7A;" width="6" height="6"/>
</svg>