<?xml version="1.0" encoding="UTF-8"?>
<svg xmlns="http://www.w3.org/2000/svg" width="26" height="26" viewBox="0 0 26 26">
    <path d="M 13.03125 0 C 7.5731453 0 4.34375 3.46875 4.34375 3.46875 A 1.0001 1.0001 0 0 0 4.15625 4.46875 L 8.65625 17.03125 A 1.0001 1.0001 0 0 0 10.3125 17.40625 C 10.3125 17.40625 12.855841 15 15 15 C 16.357698 15 17.158425 15.224319 18 15.46875 C 18.841575 15.713181 19.760532 16 21 16 C 23.478937 16 25.46875 14.875 25.46875 14.875 A 1.0001 1.0001 0 0 0 26 14 L 26 1 A 1.0001 1.0001 0 0 0 24.375 0.21875 C 24.375 0.21875 22.036657 2 20.03125 2 C 19.028546 2 18.222288 1.600844 17.15625 1.09375 C 16.090212 0.58665603 14.782976 0 13.03125 0 z M 13.03125 2 C 13.305925 2 13.567182 2.0295821 13.8125 2.0625 L 14.65625 5.28125 C 15.56425 5.28125 18.09375 6.53125 18.09375 6.53125 L 17.375 3.375 C 18.147731 3.7071491 18.99285 4 20.03125 4 C 20.559294 4 21.051122 3.9232724 21.53125 3.8125 L 21.78125 6.90625 C 21.78125 6.90625 22.754514 6.6469809 24 5.90625 L 24 10.0625 C 22.94995 10.511298 22.09375 10.65625 22.09375 10.65625 L 22.34375 13.84375 C 21.936316 13.923843 21.506035 14 21 14 C 20.545706 14 20.154613 13.956441 19.78125 13.875 L 19.03125 10.625 C 18.09025 10.379 16.571 9.94075 15.875 9.84375 L 16.75 13.125 C 16.231775 13.048142 15.673198 13 15 13 C 14.270777 13 13.625567 13.133288 13.03125 13.3125 L 11.84375 10.1875 C 10.741936 10.611698 9.6835955 11.414135 8.96875 12 L 7.34375 7.46875 C 8.764478 6.3979867 10.1875 5.875 10.1875 5.875 L 8.96875 2.75 C 10.014491 2.3243257 11.354668 2 13.03125 2 z M 10.1875 5.875 L 11.84375 10.1875 C 11.84375 10.1875 13.18575 9.71875 14.09375 9.71875 C 15.00175 9.71875 15.875 9.84375 15.875 9.84375 L 14.65625 5.28125 C 14.65625 5.28125 14.33025 5.21875 13.90625 5.21875 C 11.87525 5.21975 10.1875 5.875 10.1875 5.875 z M 19.03125 10.625 C 19.03125 10.625 19.979 10.8125 20.625 10.8125 C 21.271 10.8125 22.09375 10.65625 22.09375 10.65625 L 21.78125 6.90625 C 21.78125 6.90625 21.16225 7.09375 20.40625 7.09375 C 19.22825 7.09275 18.09375 6.53125 18.09375 6.53125 L 19.03125 10.625 z M 2.59375 2.65625 C 2.4647031 2.6406719 2.32 2.6495 2.1875 2.6875 L 1.625 2.84375 A 1.0001 1.0001 0 0 0 1.25 2.96875 L 0.8125 3.09375 C 0.2825 3.24675 -0.028 3.81475 0.125 4.34375 C 0.25816471 4.8020441 0.69864681 5.0904766 1.15625 5.0625 L 8.375 25.0625 A 1.0001 1.0001 0 1 0 10.25 24.40625 L 3.0625 4.46875 C 3.3876637 4.2268005 3.5563917 3.7868471 3.4375 3.375 C 3.32275 2.97825 2.9808906 2.7029844 2.59375 2.65625 z"/>
</svg>