<?xml version="1.0" encoding="UTF-8"?>
<!-- Generator: Adobe Illustrator 15.0.0, SVG Export Plug-In . SVG Version: 6.00 Build 0)  -->
<!DOCTYPE svg PUBLIC "-//W3C//DTD SVG 1.1//EN" "http://www.w3.org/Graphics/SVG/1.1/DTD/svg11.dtd">
<svg version="1.1" xmlns="http://www.w3.org/2000/svg" xmlns:xlink="http://www.w3.org/1999/xlink" x="0px" y="0px" width="48px" height="48px" viewBox="0 0 48 48" enable-background="new 0 0 48 48" xml:space="preserve">
<polygon fill="#FF3D00" points="23,4 20,14 9,7 14,19 4.017,21.887 14,26 8,35 19,32 21,44 27,33 39,38 33,27 44,22 32,20 39,9   27,14 "/>
<path fill="#FF9E80" d="M23.405,13.09l0.81,2.024l1.13,2.825l2.81-1.17l3.192-1.33l-1.878,2.95l-2.434,3.824l4.472,0.745  l2.292,0.383l-2.04,0.927l-2.938,1.335l1.545,2.833l1.917,3.515l-4.129-1.721l-2.494-1.039l-1.294,2.372l-1.837,3.367l-0.57-3.424  l-0.546-3.274l-3.202,0.873l-3.271,0.893l1.556-2.334l2.029-3.044l-3.383-1.394l-2.045-0.843l1.735-0.502l3.229-0.934l-1.292-3.103  l-1.33-3.192l2.95,1.878l3.345,2.128l1.139-3.797L23.405,13.09"/>
<polygon fill="#FFF59D" points="22.741,22.021 19,19 21,24 19,27 22,26 24,30 25,25 29,24 25,23 24,18 "/>
</svg>