<?xml version="1.0" encoding="UTF-8"?>
<!-- Generator: Adobe Illustrator 19.1.1, SVG Export Plug-In . SVG Version: 6.00 Build 0)  -->
<svg version="1.1" xmlns="http://www.w3.org/2000/svg" xmlns:xlink="http://www.w3.org/1999/xlink" x="0px" y="0px" viewBox="0 0 48 48" enable-background="new 0 0 48 48" xml:space="preserve">
<path fill="#E8EAF6" d="M24,8L4,17.9V42h40V17.9L24,8z"/>
<path fill="#C5CAE9" d="M44,42H4v-5h40V42z M4.9,21.8L24,12.2l19.1,9.6l0.9,0.5V22v-2L24,10L4,20v2v0.3L4.9,21.8z"/>
<rect x="9" y="24" fill="#607D8B" width="30" height="18"/>
<polygon fill="#546E7A" points="37,24 11,24 9,24 9,26 9,42 11,42 11,26 37,26 37,42 39,42 39,26 39,24 "/>
<polygon fill="#D32F2F" points="2,17 24,6 46,17 46,20 46,21 24,10 2,21 2,20 "/>
<rect x="21" y="17" fill="#01579B" width="6" height="4"/>
<path fill="#90A4AE" d="M39,32H9v-2h30V32z M39,34H9v2h30V34z M39,38H9v2h30V38z M39,26H9v2h30V26z"/>
<path fill="#78909C" d="M39,28h-2v-2h2V28z M39,30h-2v2h2V30z M39,34h-2v2h2V34z M39,38h-2v2h2V38z M11,26H9v2h2V26z M11,30H9v2h2  V30z M11,34H9v2h2V34z M11,38H9v2h2V38z"/>
</svg>