<?xml version="1.0" encoding="UTF-8"?>
<!-- Generator: Adobe Illustrator 19.1.1, SVG Export Plug-In . SVG Version: 6.00 Build 0)  -->
<svg version="1.1" xmlns="http://www.w3.org/2000/svg" xmlns:xlink="http://www.w3.org/1999/xlink" x="0px" y="0px" viewBox="0 0 48 48" enable-background="new 0 0 48 48" xml:space="preserve">
<path fill="#E8EAF6" d="M24,7.4L4,17.9V42h40V17.9L24,7.4z"/>
<polygon fill="#D32F2F" points="2,17 24,6 46,17 46,20 46,21 24,10 2,21 2,20 "/>
<path fill="#C5CAE9" d="M44,42H4v-5h40V42z M24,12.2l20,9.9V22v-2L24,10L4,20v2v0.2L24,12.2z"/>
<rect x="9" y="24" fill="#546E7A" width="30" height="2"/>
<rect x="9" y="26" fill="#455A64" width="30" height="16"/>
<rect x="9" y="26" fill="#90A4AE" width="30" height="2"/>
<path fill="#78909C" d="M39,28h-2v-2h2V28z M11,26H9v2h2V26z"/>
<rect x="21" y="17" fill="#01579B" width="6" height="4"/>
<polygon fill="#263238" points="9,28 9,37 9,42 14,37 34,37 39,42 39,37 39,28 "/>
</svg>