<?xml version="1.0" encoding="UTF-8"?>
<!-- Generator: Adobe Illustrator 15.0.0, SVG Export Plug-In . SVG Version: 6.00 Build 0)  -->
<!DOCTYPE svg PUBLIC "-//W3C//DTD SVG 1.1//EN" "http://www.w3.org/Graphics/SVG/1.1/DTD/svg11.dtd">
<svg version="1.1" xmlns="http://www.w3.org/2000/svg" xmlns:xlink="http://www.w3.org/1999/xlink" x="0px" y="0px" width="48px" height="48px" viewBox="0 0 48 48" enable-background="new 0 0 48 48" xml:space="preserve">
<path fill="#CFD8DC" d="M34.028,40h10.943C45.619,38.989,46,37.79,46,36.5c0-2.31-1.208-4.332-3.022-5.485  C42.989,30.845,43,30.674,43,30.5c0-3.45-2.06-6.414-5.013-7.746c-0.116-4.318-3.27-7.872-7.405-8.606C29.354,10.016,25.531,7,21,7  c-5.522,0-10,4.477-10,10c0,0.637,0.065,1.257,0.18,1.86C8.122,20.298,6,23.397,6,27c0,0.098,0.012,0.192,0.015,0.289  C3.607,28.79,2,31.454,2,34.5c0,2.1,0.765,4.018,2.025,5.5H18H34.028z"/>
<path fill="#455A64" d="M36.563,34.057c1.146-0.964,1.711-2.526,1.306-4.07c-0.561-2.137-2.748-3.415-4.885-2.854  c-0.006,0.002-0.014,0.004-0.021,0.006c1.438-1.711,1.371-4.255-0.239-5.863c-1.628-1.63-4.218-1.681-5.928-0.187  C26.928,20.223,27,19.492,27,19c0-2.762-2.238-5-5-5s-5,2.238-5,5c0,0.936,0.258,2.731,0.705,4.694  c-1.686-1.085-3.955-0.895-5.43,0.581c-1.7,1.699-1.7,4.457,0,6.156c0.407,0.407,1.219,1.088,2.234,1.859  C13.438,32.104,12.528,32,12,32c-2.209,0-4,1.791-4,4s1.791,4,4,4h23l-0.006-0.037C35.229,39.986,35.404,40,35.5,40  c0.071,0,0.138-0.015,0.207-0.021C35.814,39.99,35.919,40,36,40c1.657,0,3-1.343,3-3C39,35.535,37.95,34.32,36.563,34.057z"/>
<polygon fill="#FFD54F" points="19,40 13,37 19,36 15,28 21,33 22,19 25,32 30,25 27,35 34,32 29,37 35,37 28,40 "/>
<polygon fill="#FFF9C4" points="22,40 19,38 22,38 23,34 24,38 27,36 25,39 27,39 25,40 "/>
</svg>