<!DOCTYPE svg PUBLIC "-//W3C//DTD SVG 1.1//EN" "http://www.w3.org/Graphics/SVG/1.1/DTD/svg11.dtd">
<!-- Uploaded to: SVG Repo, www.svgrepo.com, Transformed by: SVG Repo Mixer Tools -->
<svg fill="#ffffff" version="1.1" id="Capa_1" xmlns="http://www.w3.org/2000/svg" xmlns:xlink="http://www.w3.org/1999/xlink" width="800px" height="800px" viewBox="0 0 472.965 472.965" xml:space="preserve" transform="matrix(-1, 0, 0, 1, 0, 0)">
<g id="SVGRepo_bgCarrier" stroke-width="0"/>
<g id="SVGRepo_tracerCarrier" stroke-linecap="round" stroke-linejoin="round"/>
<g id="SVGRepo_iconCarrier"> <g> <g id="Layer_3_48_"> <g> <path d="M455.565,206.374c-4.441-6.886-8.341-9.446-12.477-11.26s-144.126-63.5-184.343-63.5 c-17.654,0-46.431,11.318-85.53,33.642c-25.27,14.427-46.428,28.63-51.517,32.089c-43.141,0.044-74.101,0.074-77.792,0.074 c-50.919,0-66.943,98.485,3.323,98.485c2.93,0,58.511,0.138,63.633,0.233c1.13-27.637,23.954-49.773,51.861-49.773 c27.938,0,50.779,22.184,51.865,49.858c45.508,0,92.996,0,108.229,0c0.782-28.111,23.879-50.742,52.176-50.742 c28.248,0,51.312,22.551,52.171,50.594C492.345,291.934,474.322,235.449,455.565,206.374z M154.133,197.312 c32.811-20.57,81.722-48.004,104.613-48.004c11.924,0,36.43,7.179,64.229,16.974l-3.646,30.858 C266.681,197.194,205.486,197.258,154.133,197.312z M305.978,224.196H287.29c-2.429,0-4.396-1.969-4.396-4.397 c0-2.428,1.969-4.397,4.396-4.397h18.688c2.43,0,4.396,1.968,4.396,4.397C310.374,222.229,308.406,224.196,305.978,224.196z"/> <path d="M162.725,255.211c-23.747,0-43.069,19.321-43.069,43.069c0,23.749,19.322,43.071,43.069,43.071 c23.749,0,43.071-19.322,43.071-43.071C205.796,274.533,186.474,255.211,162.725,255.211z M162.725,320.894 c-12.467,0-22.61-10.144-22.61-22.612s10.143-22.611,22.61-22.611c12.469,0,22.612,10.144,22.612,22.611 C185.337,310.75,175.194,320.894,162.725,320.894z"/> <path d="M374.994,254.621c-23.749,0-43.071,19.321-43.071,43.071c0,23.749,19.322,43.069,43.071,43.069 c23.75,0,43.069-19.321,43.069-43.069C418.064,273.942,398.744,254.621,374.994,254.621z M374.994,320.305 c-12.468,0-22.612-10.145-22.612-22.612c0-12.469,10.146-22.612,22.612-22.612c12.469,0,22.61,10.144,22.61,22.612 C397.605,310.16,387.463,320.305,374.994,320.305z"/> </g> </g> </g> </g>
</svg>